<svg xmlns="http://www.w3.org/2000/svg" viewBox="0 0 500 500"><g id="freepik--background-complete--inject-1"><rect x="416.78" y="398.49" width="33.12" height="0.25" style="fill:#ebebeb"></rect><rect x="322.53" y="401.21" width="8.69" height="0.25" style="fill:#ebebeb"></rect><rect x="396.59" y="389.21" width="19.19" height="0.25" style="fill:#ebebeb"></rect><rect x="52.46" y="390.89" width="43.19" height="0.25" style="fill:#ebebeb"></rect><rect x="104.56" y="390.89" width="6.33" height="0.25" style="fill:#ebebeb"></rect><rect x="131.47" y="395.11" width="93.68" height="0.25" style="fill:#ebebeb"></rect><path d="M238.4,337.8H45.3a5.71,5.71,0,0,1-5.71-5.71V60.66A5.71,5.71,0,0,1,45.3,55H238.4a5.71,5.71,0,0,1,5.71,5.71V332.09A5.71,5.71,0,0,1,238.4,337.8ZM45.3,55.2a5.47,5.47,0,0,0-5.46,5.46V332.09a5.47,5.47,0,0,0,5.46,5.46H238.4a5.47,5.47,0,0,0,5.46-5.46V60.66a5.47,5.47,0,0,0-5.46-5.46Z" style="fill:#ebebeb"></path><path d="M454.7,337.8H261.6a5.71,5.71,0,0,1-5.71-5.71V60.66A5.71,5.71,0,0,1,261.6,55H454.7a5.71,5.71,0,0,1,5.71,5.71V332.09A5.71,5.71,0,0,1,454.7,337.8ZM261.6,55.2a5.47,5.47,0,0,0-5.46,5.46V332.09a5.47,5.47,0,0,0,5.46,5.46H454.7a5.47,5.47,0,0,0,5.46-5.46V60.66a5.47,5.47,0,0,0-5.46-5.46Z" style="fill:#ebebeb"></path><rect y="382.4" width="500" height="0.25" style="fill:#ebebeb"></rect><rect x="350.07" y="249.95" width="95.18" height="126.65" transform="translate(795.32 626.54) rotate(180)" style="fill:#f5f5f5"></rect><rect x="331.92" y="249.95" width="18.16" height="126.65" transform="translate(681.99 626.54) rotate(180)" style="fill:#e6e6e6"></rect><rect x="356.25" y="259.34" width="82.33" height="30.76" transform="translate(794.83 549.44) rotate(180)" style="fill:#fafafa"></rect><path d="M408.15,259.34l-.36,4.1a2.61,2.61,0,0,1-2.61,2.39H389.65a2.61,2.61,0,0,1-2.61-2.39l-.36-4.1Z" style="fill:#ebebeb"></path><rect x="356.25" y="293.46" width="82.33" height="30.76" transform="translate(794.83 617.67) rotate(180)" style="fill:#fafafa"></rect><path d="M408.15,293.46l-.36,4.1a2.62,2.62,0,0,1-2.61,2.39H389.65a2.62,2.62,0,0,1-2.61-2.39l-.36-4.1Z" style="fill:#ebebeb"></path><rect x="356.25" y="327.57" width="82.33" height="30.76" transform="translate(794.83 685.9) rotate(180)" style="fill:#fafafa"></rect><path d="M408.15,327.57l-.36,4.1a2.61,2.61,0,0,1-2.61,2.39H389.65a2.61,2.61,0,0,1-2.61-2.39l-.36-4.1Z" style="fill:#ebebeb"></path><polygon points="356.25 382.92 437.58 382.92 438.58 376.58 356.25 376.58 356.25 382.92" style="fill:#e6e6e6"></polygon><polygon points="339.25 382.92 356.25 382.92 356.25 376.58 338.25 376.58 339.25 382.92" style="fill:#e0e0e0"></polygon><polygon points="394.48 250.08 426.98 250.08 423.38 208.87 390.88 208.87 394.48 250.08" style="fill:#fafafa"></polygon><polygon points="394.48 250.08 392.93 250.08 389.32 208.87 390.88 208.87 394.48 250.08" style="fill:#ebebeb"></polygon><polygon points="397.43 245.88 423.3 245.88 420.43 213.07 394.56 213.07 397.43 245.88" style="fill:#f0f0f0"></polygon><polygon points="399.32 243.18 420.93 243.18 418.54 215.77 396.92 215.77 399.32 243.18" style="fill:#e6e6e6"></polygon><polygon points="385.35 250.08 387.58 224.57 355.23 224.57 353 250.08 385.35 250.08" style="fill:#f0f0f0"></polygon><polygon points="385.35 250.08 387.58 224.57 389.32 224.57 387.09 250.08 385.35 250.08" style="fill:#e0e0e0"></polygon><polygon points="382.28 247.48 384.06 227.17 358.3 227.17 356.52 247.48 382.28 247.48" style="fill:#ebebeb"></polygon><polygon points="380.31 245.81 381.79 228.85 360.27 228.85 358.79 245.81 380.31 245.81" style="fill:#f5f5f5"></polygon><path d="M310.64,365.77c0,6.76-1.06,11.13-2.84,13.94a7.4,7.4,0,0,1-6.26,3.3h-9.79a7.4,7.4,0,0,1-6.26-3.3c-1.78-2.81-2.85-7.18-2.85-13.94,0-9.81,4.28-17.66,5.68-23.92.5-2.26-1.18-9.18-1.18-9.18h19s-1.67,6.92-1.17,9.18C306.37,348.11,310.64,356,310.64,365.77Z" style="fill:#ebebeb"></path><path d="M343,326.09c0-8.52-13.35-5-16.71-18.19-1.28-5,9.58-16.33,9.58-16.33H302s10.86,11.33,9.58,16.33c-3.36,13.21-16.71,9.67-16.71,18.19,0,9.37,18.83,28.9,19.74,50.88.08,2-3.54,6-3.54,6h15.72s-3.63-4.08-3.54-6C324.17,355,343,335.46,343,326.09Z" style="fill:#f5f5f5"></path><path d="M332.77,348.21c2-4.14-2.1-18.2-2.1-18.2h14.67s-4.07,14.06-2.1,18.2c1.39,2.92,4.54,4.79,4.54,8.24v20.77c0,5.38-4.4,5.79-9.78,5.79s-9.78-.41-9.78-5.79V356.45C328.22,353,331.38,351.13,332.77,348.21Z" style="fill:#f0f0f0"></path><path d="M165.15,225.53c-8.42-3.65-13.23-11.35-10.71-17.17s11.42-7.58,19.85-3.93S187.52,215.78,185,221.6,173.58,229.18,165.15,225.53ZM171.86,210c-4-1.71-8.12-.89-9.3,1.84s1.07,6.33,5,8,8.12.89,9.3-1.84S175.81,211.75,171.86,210Z" style="fill:#e6e6e6"></path><path d="M175.07,210.36l-4-1.73,24.2-55.94a2.17,2.17,0,0,1,2.87-1.13h0a2.17,2.17,0,0,1,1.13,2.86Z" style="fill:#e6e6e6"></path><polygon points="201.12 159.83 193.43 156.47 195.17 152.47 202.85 155.83 201.12 159.83" style="fill:#e6e6e6"></polygon><polygon points="197.33 164.31 191.83 161.92 193.56 157.91 199.06 160.3 197.33 164.31" style="fill:#e6e6e6"></polygon><rect x="191.37" y="165.54" width="4.36" height="6.72" transform="translate(-38.36 279.4) rotate(-66.59)" style="fill:#e6e6e6"></rect><path d="M176.62,204.39l-2.2-.95a2.17,2.17,0,0,1-1.12-2.85v0a2.17,2.17,0,0,1,2.85-1.13l2.2.95a2.17,2.17,0,0,1,1.12,2.85v0A2.17,2.17,0,0,1,176.62,204.39Z" style="fill:#e6e6e6"></path><path d="M348.47,185.16a14.92,14.92,0,1,1-20.38,4.34A14.75,14.75,0,0,1,348.47,185.16Zm-12.15,18.23a7,7,0,1,0-1.8-9.6A6.91,6.91,0,0,0,336.32,203.39Z" style="fill:#e6e6e6"></path><path d="M334.71,201.61l4.14,2.76-29.62,45.32a2.49,2.49,0,0,1-3.45.69h0a2.48,2.48,0,0,1-.69-3.44Z" style="fill:#e6e6e6"></path><path d="M305.28,237.05,314,242.9l-4.35,6.53-8.73-5.86a2.74,2.74,0,0,1-.75-3.79l1.31-2A2.75,2.75,0,0,1,305.28,237.05Z" style="fill:#e6e6e6"></path><path d="M227.54,98.56l-4.6,11.9a2.08,2.08,0,1,1-3.89-1.5l4.6-11.9a7.49,7.49,0,0,0-4.28-9.67l-4.26-1.65A7.49,7.49,0,0,0,205.44,90l-1.88,4.86-3.88-1.5,1.88-4.86a11.64,11.64,0,0,1,15.05-6.67l4.26,1.64A11.66,11.66,0,0,1,227.54,98.56Z" style="fill:#f0f0f0"></path><path d="M226.81,100.43a2.87,2.87,0,0,0-1.22-.91l-23.2-9a2.87,2.87,0,0,0-3.68,1.63l-9,23.21a2.84,2.84,0,0,0,1.63,3.67l23.2,9a2.84,2.84,0,0,0,3.68-1.63l9-23.2A2.83,2.83,0,0,0,226.81,100.43Zm-17.62,17.93-7.35-2.84,3.89-6.79a4.08,4.08,0,1,1,7.46-.34,4,4,0,0,1-2.32,2.32Z" style="fill:#e6e6e6"></path><rect x="69.16" y="269.82" width="185.13" height="99.63" transform="translate(323.44 639.28) rotate(180)" style="fill:#e6e6e6"></rect><rect x="239.44" y="373.59" width="11.64" height="8.79" transform="translate(490.52 755.98) rotate(180)" style="fill:#e6e6e6"></rect><rect x="55.03" y="262.41" width="11.64" height="119.97" transform="translate(121.69 644.8) rotate(180)" style="fill:#e6e6e6"></rect><path d="M66.52,262.41v120h6.21v-6.72H251.08v6.72h6.21v-120H66.52Zm6.21,10.86H158.8v41.67H72.73ZM251.08,364.8H165V273.27h86.07Zm-178.35,0V321.15H158.8V364.8Z" style="fill:#f0f0f0"></path><rect x="165.01" y="277.75" width="80.26" height="87.05" transform="translate(410.27 642.56) rotate(180)" style="fill:#f5f5f5"></rect><path d="M168.64,318.67a3.73,3.73,0,1,0,3.73-3.73A3.73,3.73,0,0,0,168.64,318.67Z" style="fill:#fafafa"></path><path d="M172.37,322.4a3.73,3.73,0,0,0,3.38-2.18,3.67,3.67,0,0,1,.35,1.55,3.73,3.73,0,1,1-7.46,0,3.67,3.67,0,0,1,.35-1.55A3.73,3.73,0,0,0,172.37,322.4Z" style="fill:#e0e0e0"></path><polygon points="214.14 364.8 194.99 364.8 185.84 277.75 204.99 277.75 214.14 364.8" style="fill:#fafafa"></polygon><polygon points="190.09 364.8 186.28 364.8 177.13 277.75 180.94 277.75 190.09 364.8" style="fill:#fafafa"></polygon><rect x="139.4" y="277.67" width="7.58" height="37.23" transform="translate(286.39 592.57) rotate(180)" style="fill:#fafafa"></rect><rect x="107.96" y="277.67" width="7.58" height="37.23" transform="translate(223.5 592.57) rotate(180)" style="fill:#f5f5f5"></rect><rect x="131.82" y="280.28" width="7.58" height="34.62" transform="translate(271.22 595.18) rotate(180)" style="fill:#f5f5f5"></rect><rect x="115.54" y="280.28" width="7.58" height="34.62" transform="translate(238.66 595.18) rotate(180)" style="fill:#fafafa"></rect><rect x="123.12" y="277.67" width="4.9" height="37.23" transform="translate(251.15 592.57) rotate(180)" style="fill:#ebebeb"></rect><rect x="128.03" y="280.28" width="3.79" height="34.62" transform="translate(259.84 595.18) rotate(180)" style="fill:#fafafa"></rect><rect x="100.37" y="277.67" width="7.58" height="37.23" transform="translate(208.33 592.57) rotate(180)" style="fill:#ebebeb"></rect><rect x="92.79" y="280.28" width="7.58" height="34.62" transform="translate(193.16 595.18) rotate(180)" style="fill:#e6e6e6"></rect><rect x="76.51" y="280.28" width="7.58" height="34.62" transform="translate(160.6 595.18) rotate(180)" style="fill:#e6e6e6"></rect><rect x="84.09" y="277.67" width="4.9" height="37.23" transform="translate(173.09 592.57) rotate(180)" style="fill:#fafafa"></rect><rect x="88.99" y="280.28" width="3.79" height="34.62" transform="translate(181.78 595.18) rotate(180)" style="fill:#ebebeb"></rect><rect x="72.72" y="278.55" width="3.79" height="36.35" transform="translate(149.23 593.45) rotate(180)" style="fill:#ebebeb"></rect><rect x="72.72" y="327.57" width="7.58" height="37.23" style="fill:#ebebeb"></rect><rect x="104.16" y="327.57" width="7.58" height="37.23" style="fill:#fafafa"></rect><rect x="80.3" y="330.19" width="7.58" height="34.62" style="fill:#fafafa"></rect><rect x="96.58" y="330.19" width="7.58" height="34.62" style="fill:#ebebeb"></rect><rect x="91.68" y="327.57" width="4.9" height="37.23" style="fill:#fafafa"></rect><rect x="87.89" y="330.19" width="3.79" height="34.62" style="fill:#f5f5f5"></rect><rect x="111.75" y="327.57" width="7.58" height="37.23" style="fill:#ebebeb"></rect><rect x="119.33" y="330.19" width="7.58" height="34.62" style="fill:#f5f5f5"></rect><rect x="135.61" y="330.19" width="7.58" height="34.62" style="fill:#e6e6e6"></rect><rect x="130.71" y="327.57" width="4.9" height="37.23" style="fill:#fafafa"></rect><rect x="146.99" y="327.57" width="4.9" height="37.23" style="fill:#fafafa"></rect><rect x="126.92" y="330.19" width="3.79" height="34.62" style="fill:#ebebeb"></rect><rect x="143.19" y="328.45" width="3.79" height="36.35" style="fill:#ebebeb"></rect><path d="M81.18,198.29a4.3,4.3,0,0,0-1.86,1.77c-.58,1.18,1.23,3.37,1.23,3.37a3.36,3.36,0,0,0,3,.37l1.5-.68s-2.57-4.47-3.82-4.52Z" style="fill:#e6e6e6"></path><path d="M87.63,198.25c.18,2.12-1.13,4.8-3,5S81,201,80.78,198.85s1.34-2.33,3.23-2.49S87.44,196.13,87.63,198.25Z" style="fill:#e6e6e6"></path><path d="M82.08,197.63s1.45,1.15,4.43.48C86.51,198.11,81.81,201.24,82.08,197.63Z" style="fill:#e6e6e6"></path><path d="M83.36,197.21s1.67-.29,1.69.4c0,0,1.42-.08,1.22-.67S83.36,197.21,83.36,197.21Z" style="fill:#e6e6e6"></path><g style="opacity:0.2"><path d="M82.08,197.63s1.45,1.15,4.43.48C86.51,198.11,81.81,201.24,82.08,197.63Z" style="fill:#fafafa"></path></g><g style="opacity:0.2"><path d="M83.36,197.21s1.67-.29,1.69.4c0,0,1.42-.08,1.22-.67S83.36,197.21,83.36,197.21Z" style="fill:#fafafa"></path></g><path d="M81.43,203.88a3.08,3.08,0,0,0,3,1.34,4.13,4.13,0,0,0,2.82-1.79,6.25,6.25,0,0,0,1-3.23c0-.29,0-1-.35-1.15s-.58.4-.74.63a12.3,12.3,0,0,1-1.59,1.86A10.34,10.34,0,0,1,83.64,203C83.44,203.06,81.54,204.05,81.43,203.88Z" style="fill:#e6e6e6"></path><path d="M89.55,199.65a2.77,2.77,0,0,1-.33,2.65,4.91,4.91,0,0,1-1.41,1.15c-.37.22-.84.43-1.2.2s-.35-.82-.26-1.27c.14-.69.29-1.38.47-2.07a6.94,6.94,0,0,1,.56-2c.31-.44.74-.18,1.21.15A2.74,2.74,0,0,1,89.55,199.65Z" style="fill:#e6e6e6"></path><g style="opacity:0.2"><path d="M81.91,202.71a2,2,0,0,1-1.68-1.21c-.2-.51-.2-1.78.46-1.95A8.84,8.84,0,0,0,81.91,202.71Z" style="fill:#fafafa"></path></g><g style="opacity:0.2"><path d="M86.84,202.65a2.2,2.2,0,0,0,1.48-1.44c.11-.38,0-2.32-.61-1.51-.19.27-.15,1.12-.25,1.47A6.83,6.83,0,0,1,86.84,202.65Z" style="fill:#fafafa"></path></g><g style="opacity:0.2"><path d="M84.2,203.85a1.61,1.61,0,0,0,2,.05c-.08.38-1.26.69-1.62.8-1,.28-1.46-.14-2.38-.53C82.15,204.17,83.61,204.39,84.2,203.85Z" style="fill:#fafafa"></path></g><polygon points="82.55 242.8 82.64 213.95 84.12 205.18 84.68 205.27 83.21 214 83.1 243.35 82.55 242.8" style="fill:#e0e0e0"></polygon><path d="M83.15,213.8l-.45.35a15.71,15.71,0,0,1-1.34-2.25,20.36,20.36,0,0,0-2.81-4.32l.42-.39a21.15,21.15,0,0,1,2.9,4.44A15.38,15.38,0,0,0,83.15,213.8Z" style="fill:#e0e0e0"></path><path d="M83.5,209.93a3.37,3.37,0,0,0,1.9-1.35,6.73,6.73,0,0,0,.84-2.55c-1,.3-2.07-.18-3.1-.06a2.71,2.71,0,0,0-2,1.31c-.54.93-.76,2-.28,2.41A3.53,3.53,0,0,0,83.5,209.93Z" style="fill:#e6e6e6"></path><path d="M79.66,207.94a3.77,3.77,0,0,1-3.14.39c-1-.33-1.33-1.89-1.74-2.9a20.81,20.81,0,0,1,3.87,0,1.84,1.84,0,0,1,1.38.76,1.11,1.11,0,0,1-.21,1.46S79.66,207.94,79.66,207.94Z" style="fill:#e6e6e6"></path><path d="M74.93,209.63a4,4,0,0,1,3.17-1.15,3,3,0,0,1,2.16,1.65,1.87,1.87,0,0,1-1.62,1,5.56,5.56,0,0,1-2-.34,5.44,5.44,0,0,0-2-.35Z" style="fill:#e6e6e6"></path><path d="M94.18,204.67a4.29,4.29,0,0,1,1.25,2.23c.21,1.31-2.16,2.86-2.16,2.86a3.34,3.34,0,0,1-3-.53L89,208.13s3.78-3.51,5-3.18Z" style="fill:#e6e6e6"></path><path d="M88,202.74c-.79,2-.32,4.91,1.44,5.62s4.14-1.07,4.94-3S93.8,202.7,92,202,88.82,200.77,88,202.74Z" style="fill:#e6e6e6"></path><path d="M93.51,203.77s-1.73.68-4.38-.84C89.13,202.93,92.7,207.3,93.51,203.77Z" style="fill:#e6e6e6"></path><path d="M92.41,203s-1.51-.77-1.74-.11c0,0-1.33-.49-1-1S92.41,203,92.41,203Z" style="fill:#e6e6e6"></path><g style="opacity:0.2"><path d="M93.51,203.77s-1.73.68-4.38-.84C89.13,202.93,92.7,207.3,93.51,203.77Z" style="fill:#fafafa"></path></g><g style="opacity:0.2"><path d="M92.41,203s-1.51-.77-1.74-.11c0,0-1.33-.49-1-1S92.41,203,92.41,203Z" style="fill:#fafafa"></path></g><path d="M92.29,209.94a3.12,3.12,0,0,1-3.23.41,4.15,4.15,0,0,1-2.17-2.54,6.33,6.33,0,0,1,0-3.4c.06-.29.26-1,.67-1s.43.55.52.82a11.27,11.27,0,0,0,1,2.25,10.31,10.31,0,0,0,1.43,1.92C90.61,208.57,92.14,210.07,92.29,209.94Z" style="fill:#e6e6e6"></path><path d="M85.78,203.51a2.7,2.7,0,0,0-.46,2.62,4.54,4.54,0,0,0,1,1.52c.28.32.67.66,1.08.54s.57-.68.62-1.13c.07-.71.13-1.41.16-2.12a6.73,6.73,0,0,0,0-2.05c-.16-.52-.66-.4-1.2-.22A2.63,2.63,0,0,0,85.78,203.51Z" style="fill:#e6e6e6"></path><g style="opacity:0.2"><path d="M92.18,208.67a1.93,1.93,0,0,0,2-.66c.33-.42.7-1.64.13-2A9,9,0,0,1,92.18,208.67Z" style="fill:#fafafa"></path></g><g style="opacity:0.2"><path d="M87.48,207.17a2.17,2.17,0,0,1-1-1.81c0-.4.71-2.21,1-1.26.1.31-.19,1.11-.19,1.47A7.12,7.12,0,0,0,87.48,207.17Z" style="fill:#fafafa"></path></g><g style="opacity:0.2"><path d="M89.65,209.09a1.59,1.59,0,0,1-1.87-.52c0,.38,1,1,1.31,1.24.83.55,1.43.29,2.43.19C91.52,210,90.06,209.79,89.65,209.09Z" style="fill:#fafafa"></path></g><polygon points="81.73 238.49 82.09 237.31 82.57 235.72 83.13 233.86 87.62 219.09 88.18 214.85 88.68 211.09 88.78 210.31 89.06 210.34 89.06 210.35 89.35 210.38 89.34 210.45 89.24 211.19 88.71 215.21 88.28 218.49 88.18 219.21 88.14 219.32 83.13 235.82 82.56 237.67 82.31 238.53 81.95 239.7 81.73 238.49" style="fill:#e0e0e0"></polygon><path d="M87.73,218.92l.33.46A16.25,16.25,0,0,0,90,217.62a20.1,20.1,0,0,1,4-3.3l-.29-.49a20.34,20.34,0,0,0-4.07,3.39A17.68,17.68,0,0,1,87.73,218.92Z" style="fill:#e0e0e0"></path><path d="M88.54,215.12a3.32,3.32,0,0,1-1.42-1.85,6.58,6.58,0,0,1-.05-2.69c.86.58,2,.43,3,.85a2.72,2.72,0,0,1,1.53,1.84c.24,1,.14,2.12-.44,2.39A3.51,3.51,0,0,1,88.54,215.12Z" style="fill:#e6e6e6"></path><path d="M92.79,214.34a3.76,3.76,0,0,0,2.88,1.3c1.09,0,1.84-1.42,2.52-2.27a20.39,20.39,0,0,0-3.69-1.14,1.83,1.83,0,0,0-1.54.32,1.11,1.11,0,0,0-.24,1.46S92.79,214.34,92.79,214.34Z" style="fill:#e6e6e6"></path><path d="M96.82,217.34a3.93,3.93,0,0,0-2.7-2,3,3,0,0,0-2.55.94,1.88,1.88,0,0,0,1.25,1.45,5.56,5.56,0,0,0,2,.25,5.35,5.35,0,0,1,2,.25Z" style="fill:#e6e6e6"></path><path d="M73.92,203.51a4.33,4.33,0,0,0-1.5,2.08c-.36,1.27,1.81,3.09,1.81,3.09a3.33,3.33,0,0,0,3-.17l1.36-.95s-3.33-3.93-4.57-3.75Z" style="fill:#e6e6e6"></path><path d="M80.26,202.32c.56,2.05-.25,4.92-2.08,5.42s-4-1.55-4.55-3.6.9-2.53,2.73-3S79.7,200.27,80.26,202.32Z" style="fill:#e6e6e6"></path><path d="M74.69,202.7s1.63.88,4.44-.32C79.13,202.38,75.08,206.31,74.69,202.7Z" style="fill:#e6e6e6"></path><path d="M75.87,202.06s1.59-.59,1.74.09c0,0,1.38-.33,1.08-.88S75.87,202.06,75.87,202.06Z" style="fill:#e6e6e6"></path><g style="opacity:0.2"><path d="M74.69,202.7s1.63.88,4.44-.32C79.13,202.38,75.08,206.31,74.69,202.7Z" style="fill:#fafafa"></path></g><g style="opacity:0.2"><path d="M75.87,202.06s1.59-.59,1.74.09c0,0,1.38-.33,1.08-.88S75.87,202.06,75.87,202.06Z" style="fill:#fafafa"></path></g><path d="M75.17,209a3.12,3.12,0,0,0,3.16.79,4.17,4.17,0,0,0,2.46-2.27,6.25,6.25,0,0,0,.44-3.37c0-.29-.14-1-.55-1.07s-.5.5-.62.76a11.74,11.74,0,0,1-1.23,2.11,10.07,10.07,0,0,1-1.65,1.74C77,207.8,75.31,209.12,75.17,209Z" style="fill:#e6e6e6"></path><path d="M82.4,203.35a2.74,2.74,0,0,1,.15,2.66,4.63,4.63,0,0,1-1.18,1.39c-.32.28-.75.57-1.14.41s-.49-.74-.48-1.2c0-.71,0-1.41.08-2.12a6.87,6.87,0,0,1,.2-2c.22-.5.7-.32,1.22-.08A2.73,2.73,0,0,1,82.4,203.35Z" style="fill:#e6e6e6"></path><g style="opacity:0.2"><path d="M75.44,207.73a1.93,1.93,0,0,1-1.88-.89c-.28-.46-.51-1.72.1-2A9.07,9.07,0,0,0,75.44,207.73Z" style="fill:#fafafa"></path></g><g style="opacity:0.2"><path d="M80.28,206.79a2.2,2.2,0,0,0,1.19-1.69c0-.39-.45-2.27-.87-1.37a7.37,7.37,0,0,0,0,1.48A7.07,7.07,0,0,1,80.28,206.79Z" style="fill:#fafafa"></path></g><g style="opacity:0.2"><path d="M77.9,208.44a1.6,1.6,0,0,0,1.92-.3c0,.38-1.11.9-1.45,1.08-.89.44-1.46.12-2.44-.09C75.93,209.13,77.41,209.08,77.9,208.44Z" style="fill:#fafafa"></path></g><polygon points="83.27 247.06 78.17 218.66 78.05 209.76 78.62 209.75 78.74 218.61 83.91 247.5 83.27 247.06" style="fill:#e0e0e0"></polygon><path d="M78.65,218.42l-.39.42a15.71,15.71,0,0,1-1.71-2A20.27,20.27,0,0,0,73,213.12l.35-.45A21,21,0,0,1,77,216.52,15.41,15.41,0,0,0,78.65,218.42Z" style="fill:#e0e0e0"></path><path d="M78.29,214.55a3.32,3.32,0,0,0,1.63-1.67,6.58,6.58,0,0,0,.37-2.66c-.93.48-2.07.19-3.06.49a2.76,2.76,0,0,0-1.74,1.66c-.36,1-.39,2.08.16,2.41A3.47,3.47,0,0,0,78.29,214.55Z" style="fill:#e6e6e6"></path><path d="M74.16,213.28a3.73,3.73,0,0,1-3,.95c-1.08-.14-1.66-1.62-2.23-2.54a19.46,19.46,0,0,1,3.8-.7,1.83,1.83,0,0,1,1.49.49,1.12,1.12,0,0,1,.06,1.48S74.16,213.28,74.16,213.28Z" style="fill:#e6e6e6"></path><path d="M69.81,215.79a4,4,0,0,1,2.91-1.69,3,3,0,0,1,2.43,1.23,1.85,1.85,0,0,1-1.42,1.29,5.38,5.38,0,0,1-2,0,5.38,5.38,0,0,0-2,0Z" style="fill:#e6e6e6"></path><path d="M85.35,229.63h-6a1,1,0,0,0-1,.71,41.12,41.12,0,0,0-1.53,12.06c0,7,1.84,16.42,2.42,19.19a1,1,0,0,0,1,.81h4.16a1,1,0,0,0,1-.81c.58-2.77,2.42-12.14,2.42-19.19a41.12,41.12,0,0,0-1.53-12.06A1,1,0,0,0,85.35,229.63Z" style="fill:#f0f0f0"></path></g><g id="freepik--Shadow--inject-1"><ellipse id="freepik--path--inject-1" cx="250" cy="415.69" rx="193.89" ry="11.32" style="fill:#f5f5f5"></ellipse></g><g id="freepik--Plant--inject-1"><path d="M120.78,376.77a.63.63,0,0,1-.59-.65c.74-29.39,2.25-77.6,2.33-77.87a.66.66,0,0,1,.8-.43.65.65,0,0,1,.43.8c0,.06-1.55,48.44-2.29,77.53a.63.63,0,0,1-.65.62Z" style="fill:#263238"></path><path d="M116.83,278.63c.25,2.26,3,10.11,5.22,9.87s3.23-8.5,3-10.76a4.12,4.12,0,0,0-8.2.89Z" style="fill:#FFC100"></path><path d="M127.82,303.39c-.25-2.27-3-10.12-5.22-9.87s-3.22,8.49-3,10.76a4.12,4.12,0,0,0,8.2-.89Z" style="fill:#FFC100"></path><path d="M110,296.5c2.26-.24,10.11-2.95,9.86-5.22s-8.49-3.22-10.75-3a4.12,4.12,0,1,0,.89,8.2Z" style="fill:#FFC100"></path><path d="M134.7,285.52c-2.26.24-10.11,3-9.86,5.22s8.49,3.22,10.75,3a4.12,4.12,0,1,0-.89-8.19Z" style="fill:#FFC100"></path><path d="M109.69,286.14c1.77,1.43,9.24,5.06,10.67,3.29s-3.73-8.29-5.5-9.72a4.13,4.13,0,1,0-5.17,6.43Z" style="fill:#FFC100"></path><path d="M135,295.88c-1.77-1.43-9.24-5.06-10.66-3.29s3.72,8.29,5.5,9.71a4.12,4.12,0,1,0,5.16-6.42Z" style="fill:#FFC100"></path><path d="M117.46,303.64c1.43-1.77,5.06-9.24,3.28-10.66s-8.28,3.72-9.71,5.5a4.12,4.12,0,1,0,6.43,5.16Z" style="fill:#FFC100"></path><path d="M127.19,278.37c-1.42,1.78-5.06,9.24-3.28,10.67s8.28-3.73,9.71-5.5a4.13,4.13,0,1,0-6.43-5.17Z" style="fill:#FFC100"></path><g style="opacity:0.6000000000000001;isolation:isolate"><path d="M116.83,278.63c.25,2.26,3,10.11,5.22,9.87s3.23-8.5,3-10.76a4.12,4.12,0,0,0-8.2.89Z" style="fill:#fff"></path><path d="M127.82,303.39c-.25-2.27-3-10.12-5.22-9.87s-3.22,8.49-3,10.76a4.12,4.12,0,0,0,8.2-.89Z" style="fill:#fff"></path><path d="M110,296.5c2.26-.24,10.11-2.95,9.86-5.22s-8.49-3.22-10.75-3a4.12,4.12,0,1,0,.89,8.2Z" style="fill:#fff"></path><path d="M134.7,285.52c-2.26.24-10.11,3-9.86,5.22s8.49,3.22,10.75,3a4.12,4.12,0,1,0-.89-8.19Z" style="fill:#fff"></path><path d="M109.69,286.14c1.77,1.43,9.24,5.06,10.67,3.29s-3.73-8.29-5.5-9.72a4.13,4.13,0,1,0-5.17,6.43Z" style="fill:#fff"></path><path d="M135,295.88c-1.77-1.43-9.24-5.06-10.66-3.29s3.72,8.29,5.5,9.71a4.12,4.12,0,1,0,5.16-6.42Z" style="fill:#fff"></path><path d="M117.46,303.64c1.43-1.77,5.06-9.24,3.28-10.66s-8.28,3.72-9.71,5.5a4.12,4.12,0,1,0,6.43,5.16Z" style="fill:#fff"></path><path d="M127.19,278.37c-1.42,1.78-5.06,9.24-3.28,10.67s8.28-3.73,9.71-5.5a4.13,4.13,0,1,0-6.43-5.17Z" style="fill:#fff"></path></g><path d="M117.47,291.54a4.88,4.88,0,1,0,4.33-5.39A4.88,4.88,0,0,0,117.47,291.54Z" style="fill:#FFC100"></path><path d="M118,355.24c-5.63.12-15.27-5.08-19.06-10.16s6.94-2,5.82-6-14.41-1-16.88-6.82,7.13-4.49,6.74-7.46-10.33-2.34-13.54-8.5,5.55-2.74,4.17-5.29-12.37-13.3-7.79-15.56,14.88,8.93,18.33,10.18,4.23-6.51,8.71-2.82,1.19,19.91,6.47,22c3.93,1.58,2.24-5.83,6.76-4C125.61,324.08,120.24,355.19,118,355.24Z" style="fill:#FFC100"></path><g style="opacity:0.2"><path d="M118,355.24c-5.63.12-15.27-5.08-19.06-10.16s6.94-2,5.82-6-14.41-1-16.88-6.82,7.13-4.49,6.74-7.46-10.33-2.34-13.54-8.5,5.55-2.74,4.17-5.29-12.37-13.3-7.79-15.56,14.88,8.93,18.33,10.18,4.23-6.51,8.71-2.82,1.19,19.91,6.47,22c3.93,1.58,2.24-5.83,6.76-4C125.61,324.08,120.24,355.19,118,355.24Z" style="fill:#fff"></path></g><path d="M126.05,348.09c.09.16-.75,1,2,1.07,6.85.28,19-.18,23.51-6.41,6.5-8.89-8.48-8.07-7-13s17.55-.9,20.69-7.9-8.57-5.63-8-9.24,12.82,1.07,16.87-6.36-6.68-3.45-5-6.53S184.52,283.86,179,281,160.69,291.52,156.47,293s-5.2-11.68-10.74-7.29-1.91,24.18-8.38,26.64c-4.82,1.83-2.19-5.27-8.14-5C121.14,307.68,118.48,335.44,126.05,348.09Z" style="fill:#FFC100"></path><g style="opacity:0.30000000000000004"><path d="M126.05,348.09c.09.16-.75,1,2,1.07,6.85.28,19-.18,23.51-6.41,6.5-8.89-8.48-8.07-7-13s17.55-.9,20.69-7.9-8.57-5.63-8-9.24,12.82,1.07,16.87-6.36-6.68-3.45-5-6.53S184.52,283.86,179,281,160.69,291.52,156.47,293s-5.2-11.68-10.74-7.29-1.91,24.18-8.38,26.64c-4.82,1.83-2.19-5.27-8.14-5C121.14,307.68,118.48,335.44,126.05,348.09Z" style="fill:#fff"></path></g><path d="M120.92,372.33h0a.44.44,0,0,1-.39-.5c5.62-46,32.13-64.72,32.4-64.9a.44.44,0,1,1,.5.73c-.26.19-26.44,18.69-32,64.28A.45.45,0,0,1,120.92,372.33Z" style="fill:#263238"></path><path d="M146.85,313.32a.43.43,0,0,1-.4-.3.45.45,0,0,1,.28-.57c.17-.05,4.12-1.3,10.58.07a.46.46,0,0,1,.35.53.45.45,0,0,1-.53.35c-6.22-1.32-10.08-.11-10.12-.1A.41.41,0,0,1,146.85,313.32Z" style="fill:#263238"></path><path d="M142,318.91a.44.44,0,0,1-.43-.44c-.14-13.92,7.92-24.79,8-24.9a.46.46,0,0,1,.62-.09.45.45,0,0,1,.09.63c-.08.1-8,10.75-7.82,24.35a.45.45,0,0,1-.44.45Z" style="fill:#263238"></path><path d="M134.06,330.69a.41.41,0,0,1-.3-.14.44.44,0,0,1,0-.63c.06-.05,6-5.57,13.84-2.77a.45.45,0,0,1-.3.84c-7.3-2.62-12.87,2.53-12.92,2.58A.43.43,0,0,1,134.06,330.69Z" style="fill:#263238"></path><path d="M129.93,338.91a.46.46,0,0,1-.39-.27,33.6,33.6,0,0,1-1.43-17.26.44.44,0,0,1,.51-.37.45.45,0,0,1,.37.51,33.24,33.24,0,0,0,1.37,16.77.44.44,0,0,1-.23.58A.48.48,0,0,1,129.93,338.91Z" style="fill:#263238"></path><path d="M121.09,388.77a.44.44,0,0,1-.42-.43l-.58-12.19c-1.71-40.53-29.5-68.09-29.78-68.36a.45.45,0,0,1,.62-.64c.28.28,28.33,28.07,30.05,69l.58,12.19a.45.45,0,0,1-.43.46Z" style="fill:#263238"></path><path d="M101.77,323h-.07a.24.24,0,0,1-.13-.05l-.15-.05A28.73,28.73,0,0,0,90,320.68a.45.45,0,0,1-.46-.43.45.45,0,0,1,.44-.46,29.9,29.9,0,0,1,11.81,2.28l.14.06.08,0a.43.43,0,0,1,.23.49A.44.44,0,0,1,101.77,323Z" style="fill:#263238"></path><path d="M105.7,328.23h0a.43.43,0,0,1-.4-.48c1.07-12-5.12-21.81-5.19-21.9a.45.45,0,0,1,.76-.48c.06.1,6.42,10.18,5.31,22.46A.44.44,0,0,1,105.7,328.23Z" style="fill:#263238"></path><path d="M109.76,335.16a.43.43,0,0,1-.3-.13,12.1,12.1,0,0,0-11.16-2.74.45.45,0,0,1-.55-.32.44.44,0,0,1,.32-.54,12.75,12.75,0,0,1,12,3,.44.44,0,0,1,0,.63A.42.42,0,0,1,109.76,335.16Z" style="fill:#263238"></path><path d="M114.91,346.58a.41.41,0,0,1-.19-.05.44.44,0,0,1-.19-.6,29.44,29.44,0,0,0,2.39-14.67.45.45,0,0,1,.41-.48.44.44,0,0,1,.48.41,29.74,29.74,0,0,1-2.49,15.15A.44.44,0,0,1,114.91,346.58Z" style="fill:#263238"></path><path d="M146.16,390.69c0,14.21-6.4,25.74-25.76,25.74-18.48,0-25.75-11.53-25.75-25.74a25.69,25.69,0,0,1,4.45-14.47h42.61A25.69,25.69,0,0,1,146.16,390.69Z" style="fill:#FFC100"></path><path d="M146.16,390.69c0,14.21-6.4,25.74-25.76,25.74-18.48,0-25.75-11.53-25.75-25.74a25.69,25.69,0,0,1,4.45-14.47h42.61A25.69,25.69,0,0,1,146.16,390.69Z" style="fill:#fff;opacity:0.7000000000000001"></path></g><g id="freepik--Character--inject-1"><polygon points="294.1 403.86 304.06 402.41 301.55 379.11 291.58 380.56 294.1 403.86" style="fill:#e8bfbf"></polygon><path d="M311.72,402.76a3.89,3.89,0,0,0,2.32-1,1.34,1.34,0,0,0,.23-1.22.78.78,0,0,0-.5-.56c-1.33-.48-5,2.21-5.38,2.51a.25.25,0,0,0-.09.27.23.23,0,0,0,.22.15A18,18,0,0,0,311.72,402.76Zm1.4-2.34a1,1,0,0,1,.45,0,.31.31,0,0,1,.21.23.9.9,0,0,1-.15.81c-.51.63-2.14,1-4.4,1a13,13,0,0,1,3.92-2Z" style="fill:#FFC100"></path><path d="M308.58,402.92l.08,0c1.11-.73,3.1-3.27,2.72-4.36a.88.88,0,0,0-1-.53,1.75,1.75,0,0,0-1.26.59c-1.07,1.24-.86,4-.86,4.08a.28.28,0,0,0,.1.21A.27.27,0,0,0,308.58,402.92Zm1.67-4.42.14-.07c.44,0,.49.15.5.2.24.67-1.09,2.62-2.19,3.52a5.43,5.43,0,0,1,.77-3.29,1.22,1.22,0,0,1,.8-.37Z" style="fill:#FFC100"></path><path d="M303,398.28l-8.83,2.11a.79.79,0,0,0-.63.85l.29,12.79a1.63,1.63,0,0,0,1.84,1.39,1.08,1.08,0,0,0,.19,0c3.82-1,5.63-1.6,10.49-2.73,3-.68,12.43-1.4,16.3-3.12s2.36-5.64.6-5.27c-5.68,1.22-13-1.21-17.11-4.91C305.62,399.08,303.65,398.13,303,398.28Z" style="fill:#263238"></path><polygon points="301.55 379.11 302.84 391.12 292.88 392.58 291.58 380.57 301.55 379.11" style="opacity:0.2"></polygon><path d="M306.87,386.18l-18.43,3.44s-8.95-12.78-10.64-21.85c-1.76-9.45.12-41.61,0-42-5.21-17.6-19.38-63.2-26.21-80-3.79-9.3-6.45-15.56-6.45-15.56l1.91-.43,15.05-6.16,11,2.06s33.31,67.37,36.8,92.71C312.47,337.29,306.87,386.18,306.87,386.18Z" style="fill:#FFC100"></path><path d="M306.87,386.18l-18.43,3.44s-8.95-12.78-10.64-21.85c-1.76-9.45.12-41.61,0-42-5.21-17.6-19.38-63.2-26.21-80-3.79-9.3-6.45-15.56-6.45-15.56l1.91-.43,15.05-6.16,11,2.06s33.31,67.37,36.8,92.71C312.47,337.29,306.87,386.18,306.87,386.18Z" style="fill:#fff;opacity:0.30000000000000004"></path><path d="M273.46,310.49c-5.21-17.6-15.73-44.29-22.57-61.07l-4.53-16-.87-3.08,1.59,2.91,17.85,39.54C272.81,288,273.58,310.92,273.46,310.49Z" style="opacity:0.2;isolation:isolate"></path><polygon points="192.57 398.38 201.45 402.12 210.92 381.79 202.05 378.05 192.57 398.38" style="fill:#e8bfbf"></polygon><path d="M207.23,406.37a3.64,3.64,0,0,0,2.36.53,1.26,1.26,0,0,0,.87-.81.72.72,0,0,0-.07-.71c-.76-1.12-5.09-1.11-5.57-1.11a.27.27,0,0,0-.22.16.24.24,0,0,0,.08.25A16.57,16.57,0,0,0,207.23,406.37Zm2.4-1a.85.85,0,0,1,.35.27.3.3,0,0,1,0,.29.88.88,0,0,1-.57.54c-.76.2-2.21-.44-4-1.72a12.45,12.45,0,0,1,4.2.63Z" style="fill:#FFC100"></path><path d="M204.72,404.72h.08c1.27.07,4.24-.77,4.57-1.82a.85.85,0,0,0-.47-1,1.62,1.62,0,0,0-1.3-.25c-1.54.34-2.91,2.57-3,2.66a.25.25,0,0,0,0,.22A.23.23,0,0,0,204.72,404.72Zm3.79-2.47.14,0c.35.23.29.39.27.44-.19.64-2.31,1.4-3.67,1.48a5.17,5.17,0,0,1,2.44-2.11,1.19,1.19,0,0,1,.84.17Z" style="fill:#FFC100"></path><path d="M203.06,398l-8-3.36a.76.76,0,0,0-1,.3l-7,10a1.56,1.56,0,0,0,.63,2.12l.17.08c3.49,1.43,5.25,1.95,9.64,3.83,2.69,1.16,10.39,5.95,14.35,6.8s5-3,3.44-3.73c-5.07-2.27-9.33-8.27-10.44-13.46C204.6,400.08,203.62,398.23,203.06,398Z" style="fill:#263238"></path><polygon points="211.31 382.03 206.18 392.38 197.39 388.44 202.51 378.08 211.31 382.03" style="opacity:0.2"></polygon><path d="M213.16,393.31l-17.68-9.42s-3.39-12.59,0-20.62c6.52-15.45,23.5-38.17,23.61-38.6,4.53-17.78,12.47-66.49,15.19-84.4,1.5-9.93,2.39-12.07,2.39-12.07l1.87.61,27,.05s5.1,41-14.46,104.4c-4.86,15.78-13,28.9-26.43,46.65A170.43,170.43,0,0,1,213.16,393.31Z" style="fill:#FFC100"></path><path d="M213.16,393.31l-17.68-9.42s-3.39-12.59,0-20.62c6.52-15.45,23.5-38.17,23.61-38.6,4.53-17.78,12.47-66.49,15.19-84.4,1.5-9.93,2.39-12.07,2.39-12.07l1.87.61,27,.05s5.1,41-14.46,104.4c-4.86,15.78-13,28.9-26.43,46.65A170.43,170.43,0,0,1,213.16,393.31Z" style="fill:#fff;opacity:0.30000000000000004"></path><path d="M289.56,195.39a16.35,16.35,0,0,1,3.95-8.76c.55-.58,2.66-1.46,3.86-2.24,5.87-3.85,17.63-8.66,17.63-8.66l3.63,3.16s-7.16,6.92-11.42,10.24c-.84.66-1.81,1.45-2.83,2.29-1.86,1.54-10.58,7.29-12.24,8.74Z" style="fill:#e8bfbf"></path><path d="M325.34,173.94l-6.71,5-3.76-2.77a38.56,38.56,0,0,1,3.11-3.48,3.56,3.56,0,0,0,1.08-2.54,8.55,8.55,0,0,1,1-4.45.56.56,0,0,1,0-.08,3.11,3.11,0,0,1,5.54,1l1,3.58A3.55,3.55,0,0,1,325.34,173.94Z" style="fill:#e8bfbf"></path><path d="M291.7,196.73l-1.77,1.62c-.55-.44-1.42-1.15-2.52-2.07-8.62-7.15-30.23-24.51-21.62-29.46,7.39-4.25,15.23,8.74,19.14,12.65a33.18,33.18,0,0,1,4.74,6.47C291.51,189.26,292.87,193.27,291.7,196.73Z" style="fill:#263238"></path><path d="M289.66,184.39a28.85,28.85,0,0,0-7.63,8.32,17.31,17.31,0,0,0,9.48,10.74,38,38,0,0,0,3.13-18.09C293.08,185,291.22,184.73,289.66,184.39Z" style="fill:#263238"></path><path d="M242.21,165.81c-3.09,1-6.62.19-8.6,2.76s-2.57,5.94-2.57,9.18a59.85,59.85,0,0,0,2.06,13.33q1.86,8,3.73,15.95c.85,3.64-.05,20.55.86,20.83,0,0,28.27-.55,35.36-1.55,0,0,.61-17.38,1.18-23.3.13-1.31,2.12-6.89,2.35-8.29,1.11-6.6-1.06-11.25-3.34-17.55,0,0-5-10.07-7.45-10.35C261.44,166.33,250.8,163,242.21,165.81Z" style="fill:#263238"></path><path d="M241,174.14c-.1-.58-5.12-10.72-9.93-3.63-6.69,9.86-7.14,22.24-7.14,22.24s-4.11,12-1.25,14.66,6,4.32,8,2.83a12.9,12.9,0,0,0,3.3-4.47S242.78,184.46,241,174.14Z" style="fill:#263238"></path><path d="M240.69,162.05a4.3,4.3,0,0,0,.5,6.78,5.68,5.68,0,0,0,7.65,6.8c-.84,1.52.11,3.53,1.58,4.47a12.11,12.11,0,0,0,5,1.34,8.33,8.33,0,0,1,4.8,1.81l5.34-7.69a6.63,6.63,0,0,0,1.47-3.29c.05-1.21-.87-2.55-2.08-2.46a3.55,3.55,0,0,0-4.79-5.21,2.72,2.72,0,0,0-1.22-2.73,6.38,6.38,0,0,0-3-.91Z" style="fill:#263238"></path><path d="M243.9,149c1.39,5.1,3.08,14.51-.29,18.23a48.89,48.89,0,0,1,16.33,11.49,7.87,7.87,0,0,0,1.86-9,7.7,7.7,0,0,0-4.28-4.23c-3.72-1.58-3.75-5.23-3.13-8.74Z" style="fill:#e8bfbf"></path><path d="M246,157.69l3.51.95a11.26,11.26,0,0,0,4.62.27h0a7.34,7.34,0,0,0,.33,3.21,6.5,6.5,0,0,1-6.94-1.47A11.36,11.36,0,0,1,246,157.69Z" style="opacity:0.2;isolation:isolate"></path><path d="M237.09,144.65c3.71,7.84,5.12,11.24,10.84,13.74,8.62,3.77,17.42-2.53,16.12-11.32-1.18-7.91-7.06-19.42-16.21-19.46a11.83,11.83,0,0,0-10.75,17Z" style="fill:#e8bfbf"></path><path d="M241.17,129.67c-2.71-1.26-6.07-.23-8.33,1.75s-3.69,4.84-5,7.59a20.11,20.11,0,0,0-1.8,4.63,6.72,6.72,0,0,0,.62,4.83,5.13,5.13,0,0,0,4,2.41,2.74,2.74,0,0,1,2.33,1.61,5.4,5.4,0,0,1,0,2.56,5.46,5.46,0,0,0,0,2.48,3.72,3.72,0,0,0,3.23,2.26,11.1,11.1,0,0,0,4.09-.66,2.37,2.37,0,0,1,2.35.48,2,2,0,0,1,.4.51A1.09,1.09,0,0,0,245,160c1.21-2.88-.55-7.47-3.17-11-1.39-1.86-1.32-1.39-1.86-3.65-.46-1.88.23-3.84,1.07-5.58,1.13-2.33,2.57-4.59,2.12-7.37A3.62,3.62,0,0,0,241.17,129.67Z" style="fill:#263238"></path><path d="M237.32,152.68a6.79,6.79,0,0,0,4.74,2.13c2.39.06,3-2.22,1.84-4.17-1-1.75-3.54-3.88-5.7-3S235.82,151,237.32,152.68Z" style="fill:#e8bfbf"></path><path d="M252,143.26c.28.68.83,1.05,1.26.87s.54-.83.3-1.5-.82-1-1.26-.87S251.77,142.6,252,143.26Z" style="fill:#263238"></path><path d="M259.35,140.1c.27.69.82,1.05,1.25.88s.54-.83.3-1.5-.82-1-1.25-.87S259.09,139.45,259.35,140.1Z" style="fill:#263238"></path><path d="M259.46,138.73l1.39-1.09S260.55,139.19,259.46,138.73Z" style="fill:#263238"></path><path d="M257.45,141.57c1.7,1.68,3,2,4.82,3.14a2.16,2.16,0,0,1-1.59,2Z" style="fill:#ed847e"></path><path d="M259.9,149.92a5.94,5.94,0,0,0,.92-.43.2.2,0,0,0,.08-.27h0a.22.22,0,0,0-.28-.08,5.56,5.56,0,0,1-5.08.26.21.21,0,0,0-.28.09.2.2,0,0,0,.08.28A5.87,5.87,0,0,0,259.9,149.92Z" style="fill:#263238"></path><path d="M251.76,137.81a.44.44,0,0,1-.32.4c-1.92.57-2.77,3-2.77,3a.43.43,0,0,1-.82-.27c.07-.1,1-2.89,3.34-3.59a.45.45,0,0,1,.54.3A.32.32,0,0,1,251.76,137.81Z" style="fill:#263238"></path><path d="M260.61,136.63a.44.44,0,0,1-.51,0c-1.56-1.26-4.05-.57-4.06-.56a.43.43,0,0,1-.54-.29.44.44,0,0,1,.29-.54c.12,0,3-.82,4.85.7a.45.45,0,0,1,.07.61A.36.36,0,0,1,260.61,136.63Z" style="fill:#263238"></path><path d="M252.16,141.87l1.39-1.08S253.23,142.34,252.16,141.87Z" style="fill:#263238"></path><path d="M241.77,128.36a7.26,7.26,0,0,0-5.44,3.26c-.8,1.24-1.08,3.12.1,4a3.76,3.76,0,0,0,2,.55c3,.27,6.79-2.08,6.79-2.08-1.17-5,9.26-8.82,14.4-1.12,1.51,2.26,1.1,3.9,3.61,4.95,1.18.49,2.74.35,3.5,1.39,1.25,1.71-1.16,4.61.37,6.08,1.05,1,3.43.62,3.58,2.07.06.68-.38,1.66.27,1.86.36.11.7-.22.93-.52a5.87,5.87,0,0,0,1.34-2.36,2.07,2.07,0,0,0-.95-2.34c-.64-.29-2.33,0-2.22.72a21.92,21.92,0,0,1-.25-4.8c.28-1.34,1.56-2.51,1.17-3.83s-2.08-2-3.53-2.18-3.1-.39-4-1.55-.54-3.16-.86-4.77a6.6,6.6,0,0,0-4-4.46C252.73,120.72,243.76,121.08,241.77,128.36Z" style="fill:#263238"></path><path d="M258.24,155l-20,10.05A14.23,14.23,0,0,0,231.38,183L241,207.6a14.26,14.26,0,0,0,17.22,8.49l21.5-6.2A14.24,14.24,0,0,0,289.05,191L277.9,162.58A14.25,14.25,0,0,0,258.24,155Zm-3.31,42.24a8.67,8.67,0,1,1,4.91-11.23A8.67,8.67,0,0,1,254.93,197.28Z" style="fill:#FFC100"></path><path d="M258.24,155l-20,10.05A14.23,14.23,0,0,0,231.38,183L241,207.6a14.26,14.26,0,0,0,17.22,8.49l21.5-6.2A14.24,14.24,0,0,0,289.05,191L277.9,162.58A14.25,14.25,0,0,0,258.24,155Zm-3.31,42.24a8.67,8.67,0,1,1,4.91-11.23A8.67,8.67,0,0,1,254.93,197.28Z" style="fill:#FFC100"></path><path d="M289.05,191,277.9,162.58A14.25,14.25,0,0,0,258.24,155L252.43,158l-3.9,2-10.28,5.17A14.23,14.23,0,0,0,231.38,183L241,207.6a14.26,14.26,0,0,0,17.22,8.49l21.51-6.2a14.09,14.09,0,0,0,4.7-2.38,13.61,13.61,0,0,0,2.77-2.8A14.2,14.2,0,0,0,289.05,191Zm-34.12,6.26A8.67,8.67,0,1,1,259.84,186,8.67,8.67,0,0,1,254.93,197.28Z" style="fill:#fff;opacity:0.1"></path><path d="M258.44,156.92l-18.75,9.42a13.35,13.35,0,0,0-6.44,16.8l9.05,23.06a13.37,13.37,0,0,0,16.15,8l20.16-5.82a13.35,13.35,0,0,0,8.73-17.7L276.89,164A13.37,13.37,0,0,0,258.44,156.92Zm-14.75,35.45a8.67,8.67,0,1,1,11.24,4.91A8.66,8.66,0,0,1,243.69,192.37Z" style="fill:#FFC100"></path><path d="M258.44,156.92l-18.75,9.42a13.35,13.35,0,0,0-6.44,16.8l9.05,23.06a13.37,13.37,0,0,0,16.15,8l20.16-5.82a13.35,13.35,0,0,0,8.73-17.7L276.89,164A13.37,13.37,0,0,0,258.44,156.92Zm-14.75,35.45a8.67,8.67,0,1,1,11.24,4.91A8.66,8.66,0,0,1,243.69,192.37Z" style="fill:#FFC100;opacity:0.1"></path><path d="M351.62,148l-.57,1-.32.58-.91,1.65.38,4.23a1.19,1.19,0,0,1-.06.53,1.35,1.35,0,0,1-.77.82l-7.9,3.09a1.29,1.29,0,0,1-1.12-.08,1.11,1.11,0,0,1-.3-.22l-4.47-4.55h0l-6.36,2.49.92,2.35-6.35,2.48,1.51,3.87-4.67,1.83a1.42,1.42,0,0,1-1.16-.06,1.23,1.23,0,0,1-.33-.23l-2.69-2.53-6.36,2.48,1.52,3.87-6.68,2.62,1.52,3.88a1.23,1.23,0,0,1-.7,1.6l-18.29,7.16-7.94-20.25,66.18-25.91,1,.53,3.35,1.73A3.65,3.65,0,0,1,351.62,148Z" style="fill:#FFC100"></path><g style="opacity:0.1"><path d="M351.62,148l-.57,1-.32.58-.91,1.65.38,4.23a1.19,1.19,0,0,1-.06.53,1.35,1.35,0,0,1-.77.82l-7.9,3.09a1.29,1.29,0,0,1-1.12-.08,1.11,1.11,0,0,1-.3-.22l-4.47-4.55h0l-6.36,2.49.92,2.35-6.35,2.48,1.51,3.87-4.67,1.83a1.42,1.42,0,0,1-1.16-.06,1.23,1.23,0,0,1-.33-.23l-2.69-2.53-6.36,2.48,1.52,3.87-6.68,2.62,1.52,3.88a1.23,1.23,0,0,1-.7,1.6l-18.29,7.16-7.94-20.25,66.18-25.91,1,.53,3.35,1.73A3.65,3.65,0,0,1,351.62,148Z" style="fill:#fff"></path></g><path d="M351.36,145.72l-70.76,27.7-2.06-5.2L346,141.81l3.36,1.72C350.64,144.19,351.37,144.8,351.36,145.72Z" style="fill:#FFC100"></path><path d="M351.36,145.72l-70.76,27.7-2.06-5.2L346,141.81l3.36,1.72C350.64,144.19,351.37,144.8,351.36,145.72Z" style="opacity:0.1"></path><path d="M350,149.62l-.68,1.54a.19.19,0,0,0,0,.08l.39,4.18a1.33,1.33,0,0,1,0,.45.16.16,0,0,1-.1.11l-8.59,3.38a.14.14,0,0,1-.14,0,1,1,0,0,1-.23-.19l-4.92-4.94a.15.15,0,0,0-.17,0l-7,2.74a.17.17,0,0,0-.09.21l.83,2.11a.16.16,0,0,1-.09.21l-5.95,2.34a.16.16,0,0,0-.09.21l1.43,3.63a.15.15,0,0,1-.09.21l-4.36,1.72a.14.14,0,0,1-.14,0,1.18,1.18,0,0,1-.25-.19l-3.2-2.94a.16.16,0,0,0-.16,0l-6.93,2.73a.15.15,0,0,0-.09.21l1.46,3.72a.15.15,0,0,1-.09.21l-26.61,10.47a.16.16,0,0,1-.2-.09L281.2,175a.17.17,0,0,1,.09-.21l69.34-27.29a.16.16,0,0,1,.2.22Z" style="fill:#FFC100"></path><path d="M350,149.62l-.68,1.54a.19.19,0,0,0,0,.08l.39,4.18a1.33,1.33,0,0,1,0,.45.16.16,0,0,1-.1.11l-8.59,3.38a.14.14,0,0,1-.14,0,1,1,0,0,1-.23-.19l-4.92-4.94a.15.15,0,0,0-.17,0l-7,2.74a.17.17,0,0,0-.09.21l.83,2.11a.16.16,0,0,1-.09.21l-5.95,2.34a.16.16,0,0,0-.09.21l1.43,3.63a.15.15,0,0,1-.09.21l-4.36,1.72a.14.14,0,0,1-.14,0,1.18,1.18,0,0,1-.25-.19l-3.2-2.94a.16.16,0,0,0-.16,0l-6.93,2.73a.15.15,0,0,0-.09.21l1.46,3.72a.15.15,0,0,1-.09.21l-26.61,10.47a.16.16,0,0,1-.2-.09L281.2,175a.17.17,0,0,1,.09-.21l69.34-27.29a.16.16,0,0,1,.2.22Z" style="opacity:0.1"></path><line x1="310.67" y1="171.27" x2="284.06" y2="181.74" style="fill:#FFC100;opacity:0.1"></line><path d="M248.07,179a10.87,10.87,0,1,0,14.1,6.16A10.85,10.85,0,0,0,248.07,179Zm6.86,18.3a8.67,8.67,0,1,1,4.91-11.23A8.67,8.67,0,0,1,254.93,197.28Z" style="fill:#fff;opacity:0.30000000000000004"></path><path d="M287.21,204.7a13.56,13.56,0,0,1-2.76,2.8l-35.93-47.59,0,0s3.17-1.59,3.89-2.07a.37.37,0,0,0,.05.15C254,161.32,282.24,198,287.21,204.7Z" style="fill:#fff;opacity:0.1"></path><path d="M282,209c-.22.1-10.69,3.29-10.69,3.29l-11.67-15.45A10.87,10.87,0,0,0,248.07,179a8.48,8.48,0,0,0-1.39.67L236.36,166s9.07-4.32,10.07-5C246.7,162.93,282,208.6,282,209Z" style="fill:#fff;opacity:0.1"></path><path d="M239.19,133.94a5.95,5.95,0,0,0,2,9.21c.86.4,1.8.59,2.64,1a2.83,2.83,0,0,1,1.72,2.09c.1,1-.67,2-.59,3a3.44,3.44,0,0,0,1.55,2.29,6.29,6.29,0,0,1,2,2,1.71,1.71,0,0,1-.78,2.38,1.27,1.27,0,0,0,0,1.25.82.82,0,0,0,1,.13,5.09,5.09,0,0,0,2.39-4.17,4.42,4.42,0,0,0-2.54-3.95,2.34,2.34,0,0,1,.17-1.82c.45-1.14.91-2.29,1.37-3.43a2,2,0,0,0-.29-1.65,3.26,3.26,0,0,0-1.21-.77l-2.95-1.26c-1.11-.48-4.42-4.9-.5-6.19a3,3,0,0,0-2.62-1.72A3.92,3.92,0,0,0,239.19,133.94Z" style="fill:#263238"></path><path d="M244.54,129.18l-.3,3.49c1-1.6,2.79-4.71,2.73-4.59C246.2,128.5,245.31,128.76,244.54,129.18Z" style="fill:#263238"></path><path d="M245.86,131.09l4.1-3.79a3,3,0,0,0-3.11.72C246.88,127.93,246.24,129.87,245.86,131.09Z" style="fill:#263238"></path><path d="M237.53,225.7c-5.33,6.62-3.56,11.69-10.92,23.41,9.29,6.88,19.47,8,32.12,7,1.5-2.65,2.25-5.41,3.75-8.06,2.14,2.66,3.86,4.89,6,7.56,6.63-1,14.51-2.91,19.75-6.29-4.63-5.31-7.51-11.94-10.47-17.79-1.39-2.75-.81-3.9-4.5-7.5-11.75.54-23.4.82-35.14,1.37C238.44,225.45,237.22,225.68,237.53,225.7Z" style="fill:#263238"></path><path d="M239,224.59l-.73,3.09c-.11.25.18.48.57.45l32.39-1.43a.53.53,0,0,0,.57-.37l.17-3.07c0-.2-.27-.38-.61-.35l-31.81,1.4A.63.63,0,0,0,239,224.59Z" style="fill:#FFC100"></path><path d="M239,224.59l-.73,3.09c-.11.25.18.48.57.45l32.39-1.43a.53.53,0,0,0,.57-.37l.17-3.07c0-.2-.27-.38-.61-.35l-31.81,1.4A.63.63,0,0,0,239,224.59Z" style="fill:#FFC100"></path><path d="M246.13,228.14l-.94,0c-.18,0-.33-.08-.32-.19l.25-4c0-.12.17-.22.35-.22l.95-.05c.17,0,.32.08.31.2l-.25,4C246.47,228,246.31,228.13,246.13,228.14Z" style="fill:#263238"></path><path d="M269.51,227.13l-.94,0c-.18,0-.33-.08-.32-.19l.25-4c0-.12.17-.23.35-.23l.94,0c.18,0,.32.08.31.19l-.25,4C269.85,227,269.7,227.12,269.51,227.13Z" style="fill:#263238"></path><path d="M250.31,208.72c.06.29,2.57,4.29,4.55,4h0a1.62,1.62,0,0,1,1.5.61c.79,1,1.27,1.62,1.8,2.3a3,3,0,0,0,3.65.86c.37-.17.74-.36,1.11-.56a3,3,0,0,0,1.52-3.39,16.5,16.5,0,0,0-1.69-4.21,2.89,2.89,0,0,0-1-1.16,24.75,24.75,0,0,0-6.47-1.52C253.58,205.72,251.92,208,250.31,208.72Z" style="fill:#e8bfbf"></path><path d="M255.38,205.53s-26.58-8.05-32.32-2.69c-3.37,3.15-1.78,6.13.11,8,1.4,1.43,4.45,1.08,6.45,1l20.94-2.06Z" style="fill:#e8bfbf"></path><path d="M240.1,201.85a4.37,4.37,0,0,0-2.55-3.28,13,13,0,0,0-4.19-1l-10-1.27a12.87,12.87,0,0,0-2.87,7.82,12.14,12.14,0,0,0,2.86,7.52c1.6-3.09,3.71-6.27,6.83-7.81S236.68,201.23,240.1,201.85Z" style="fill:#263238"></path><path d="M233.25,153.3c0-.06,0-.09,0-.1C233.46,153.14,233.43,153.18,233.25,153.3Z" style="fill:#fff;opacity:0.1"></path></g><g id="freepik--speech-bubble--inject-1"><path d="M299.29,110.26l7.4,13.74,30.22-25.66a.28.28,0,0,0-.33-.45l-28.33,18.7-4.36-8.52Z" style="fill:#FFC100"></path><path d="M282.59,137.63,294.81,124a19.45,19.45,0,0,1-5.88-13.69c0-12.58,13.16-22.81,29.34-22.81s29.35,10.23,29.35,22.81-13.17,22.8-29.35,22.8a35.16,35.16,0,0,1-16.38-3.89Zm35.68-48.81c-15.46,0-28,9.65-28,21.51a18.35,18.35,0,0,0,5.93,13.21l.44.43-9.05,10.09L302,127.8l.28.15a33.81,33.81,0,0,0,16,3.88c15.47,0,28.05-9.64,28.05-21.5S333.74,88.82,318.27,88.82Z" style="fill:#FFC100"></path></g></svg>